# xmcd
#
# Track frame offsets: 
#        150
#        13044
#        25283
#        37859
#        49645
#        65504
#        82090
#        94974
#        104889
#        117102
#
# Disc length: 1762 seconds
#
# Revision: 0
# Processed by: cddbd v1.5.2PL0 Copyright (c) Steve Scherf et al.
# Submitted via: ExactAudioCopy v1.0b1
#
DISCID=8106e00a
DTITLE=Johnny Cash - John R. Cash
DYEAR=1975
DGENRE=Country
TTITLE0=My Old Kentucky Home (Turpentine And Dandelion Wine)
TTITLE1=Hard Times Comin'
TTITLE2=The Lady Came From Baltimore
TTITLE3=Lonesome To The Bone
TTITLE4=The Night They Drove Old Dixie Down
TTITLE5=Clean Your Own Tables
TTITLE6=Jesus Was Our Saviour (Cotton Was Our King)
TTITLE7=Reason To Believe
TTITLE8=Cocaine Carolina (with David Allen Coe)
TTITLE9=Smokey Factory Blues
EXTD=
EXTT0=
EXTT1=
EXTT2=
EXTT3=
EXTT4=
EXTT5=
EXTT6=
EXTT7=
EXTT8=
EXTT9=
PLAYORDER=
